<?xml version="1.0" encoding="UTF-8" standalone="no"?>
<svg
   xmlns:dc="http://purl.org/dc/elements/1.1/"
   xmlns:cc="http://creativecommons.org/ns#"
   xmlns:rdf="http://www.w3.org/1999/02/22-rdf-syntax-ns#"
   xmlns:svg="http://www.w3.org/2000/svg"
   xmlns="http://www.w3.org/2000/svg"
   xmlns:sodipodi="http://sodipodi.sourceforge.net/DTD/sodipodi-0.dtd"
   xmlns:inkscape="http://www.inkscape.org/namespaces/inkscape"
   enable-background="new 0 0 24 24"
   height="24px"
   viewBox="0 0 24 24"
   width="24px"
   fill="#000000"
   version="1.1"
   id="svg1001"
   sodipodi:docname="vrpano_black_24dp_novo.svg"
   inkscape:version="1.0.1 (3bc2e81, 2020-09-07)">
  <metadata
     id="metadata1007">
    <rdf:RDF>
      <cc:Work
         rdf:about="">
        <dc:format>image/svg+xml</dc:format>
        <dc:type
           rdf:resource="http://purl.org/dc/dcmitype/StillImage" />
        <dc:title></dc:title>
      </cc:Work>
    </rdf:RDF>
  </metadata>
  <defs
     id="defs1005" />
  <sodipodi:namedview
     pagecolor="#ffffff"
     bordercolor="#666666"
     borderopacity="1"
     objecttolerance="10"
     gridtolerance="10"
     guidetolerance="10"
     inkscape:pageopacity="0"
     inkscape:pageshadow="2"
     inkscape:window-width="1848"
     inkscape:window-height="1016"
     id="namedview1003"
     showgrid="false"
     inkscape:zoom="35.916667"
     inkscape:cx="12"
     inkscape:cy="12"
     inkscape:window-x="72"
     inkscape:window-y="27"
     inkscape:window-maximized="1"
     inkscape:current-layer="svg1001" />
  <g
     id="g991">
    <rect
       fill="none"
       height="24"
       width="24"
       id="rect989" />
  </g>
  <g
     id="g999"
     style="fill:#333333;fill-opacity:1">
    <g
       id="g997"
       style="fill:#333333;fill-opacity:1">
      <path
         d="M21.01,4C20.45,4,17.4,5.5,12,5.5c-5.31,0-8.49-1.49-9.01-1.49C2.46,4.01,2,4.45,2,5.02V19c0,0.57,0.46,1,0.99,1 c0.57,0,3.55-1.5,9.01-1.5c5.42,0,8.44,1.5,9.01,1.5c0.53,0,0.99-0.43,0.99-1V5C22,4.43,21.54,4,21.01,4z M20,17.63 c-2.01-0.59-4.62-1.13-8-1.13c-3.39,0-5.99,0.54-8,1.13V6.38C6.58,7.11,9.32,7.5,12,7.5c3.38,0,5.99-0.54,8-1.13V17.63z"
         id="path993"
         style="fill:#333333;fill-opacity:1" />
      <path
         d="M9.17,10.99l-3.69,4.42C7.48,15.15,9.66,15,12,15c2.3,0,4.52,0.15,6.51,0.4L14,10l-2.83,3.39L9.17,10.99z"
         id="path995"
         style="fill:#333333;fill-opacity:1" />
    </g>
  </g>
</svg>
